{"title":"RIPD(2013)MPEG-4[DaScubaDude]","uid":15323991,"size":1059591238,"categoryP":"video","categoryS":"movies","magnet":"?xt=urn:btih:13ceea19099a299fc89fced7a9e04ed19329c6b1&amp;dn=RIPD%282013%29MPEG-4%5BDaScubaDude%5D&amp;tr=udp%3A%2F%2Ftracker.leechers-paradise.org%3A6969&amp;tr=udp%3A%2F%2Fzer0day.ch%3A1337&amp;tr=udp%3A%2F%2Fopen.demonii.com%3A1337&amp;tr=udp%3A%2F%2Ftracker.coppersurfer.tk%3A6969&amp;tr=udp%3A%2F%2Fexodus.desync.com%3A6969","seeders":4,"leechers":2,"uploader":"dascuba","files":1,"time":1468676917,"description":"R.I.P.D. (2013)\r\nPG-13 | 1h 36min | Action, Comedy, Fantasy | 19 July 2013 (USA)\r\nA recently slain cop joins a team of undead police officers working for the Rest in Peace Department and tries to find the man who murdered him.\r\nDirector: Robert Schwentke\r\nWriters: Phil Hay (screenplay), Matt Manfredi (screenplay) | \r\nStars: Ryan Reynolds, Jeff Bridges, Mary-Louise Parker |\r\n\r\nGeneral\r\nComplete name                            : RIPDR.I.P.D._Title6.mp4\r\nFormat                                   : MPEG-4\r\nFormat profile                           : Base Media\r\nCodec ID                                 : isom (isom/iso2/avc1/mp41)\r\nFile size                                : 1 011 MiB\r\nDuration                                 : 1h 35mn\r\nOverall bit rate                         : 1 474 Kbps\r\nMovie name                               : R_I_P_D\r\nGenre                                    : Comedy\r\nWriting application                      : Lavf54.6.100\r\n\r\nVideo\r\nID                                       : 1\r\nFormat                                   : AVC\r\nFormat/Info                              : Advanced Video Codec\r\nFormat profile                           :   \r\nFormat settings, CABAC                   : No\r\nFormat settings, ReFrames                : 6 frames\r\nCodec ID                                 : avc1\r\nCodec ID/Info                            : Advanced Video Coding\r\nDuration                                 : 1h 35mn\r\nBit rate                                 : 1 199 Kbps\r\nWidth                                    : 720 pixels\r\nHeight                                   : 404 pixels\r\nDisplay aspect ratio                     : 16:9\r\nFrame rate mode                          : Constant\r\nFrame rate                               : 29.970 (30000/1001) fps\r\nColor space                              : YUV\r\nChroma subsampling                       : 4:2:0\r\nBit depth                                : 8 bits\r\nScan type                                : Progressive\r\nBits/(Pixel*Frame)                       : 0.138\r\nStream size                              : 822 MiB (81%)\r\n\r\nAudio\r\nID                                       : 2\r\nFormat                                   : AAC\r\nFormat/Info                              : Advanced Audio Codec\r\nFormat profile                           : LC\r\nCodec ID                                 : 40\r\nDuration                                 : 1h 35mn\r\nBit rate mode                            : Constant\r\nBit rate                                 : 265 Kbps\r\nChannel(s)                               : 2 channels\r\nChannel(s)_Original                      : 6 channels\r\nChannel positions                        : Front: L C R, Side: L R, LFE\r\nSampling rate                            : 44.1 KHz\r\nFrame rate                               : 43.066 fps (1024 spf)\r\nCompression mode                         : Lossy\r\nStream size                              : 184 MiB (18%)\r\nDefault                                  : Yes\r\nAlternate group                          : 1","torrent":{"xt":"urn:btih:13ceea19099a299fc89fced7a9e04ed19329c6b1","amp;dn":"RIPD%282013%29MPEG-4%5BDaScubaDude%5D","amp;tr":["udp%3A%2F%2Ftracker.leechers-paradise.org%3A6969","udp%3A%2F%2Fzer0day.ch%3A1337","udp%3A%2F%2Fopen.demonii.com%3A1337","udp%3A%2F%2Ftracker.coppersurfer.tk%3A6969","udp%3A%2F%2Fexodus.desync.com%3A6969"],"infoHash":"13ceea19099a299fc89fced7a9e04ed19329c6b1","infoHashBuffer":{"type":"Buffer","data":[19,206,234,25,9,154,41,159,200,159,206,215,169,224,78,209,147,41,198,177]},"announce":[],"urlList":[]}}